# xmcd
#
# Track frame offsets: 
#        150
#        11732
#        29145
#        43517
#        59600
#        71935
#        84532
#        101125
#        118357
#        131580
#        153747
#
# Disc length: 2233 seconds
#
# Revision: 0
# Processed by: cddbd v1.5.2PL0 Copyright (c) Steve Scherf et al.
# Submitted via: ExactAudioCopy v0.99pb3
#
DISCID=a908b70b
DTITLE=The Rounders - The Rounders
DYEAR=2001
DGENRE=Country
TTITLE0=That Ole Jukebox
TTITLE1=Cheatin' Man
TTITLE2=Do-Right Papa
TTITLE3=Heartaches and Sad Songs
TTITLE4=Pigeon Mtn. Blues
TTITLE5=Oh Honey
TTITLE6=Shot of Heartache
TTITLE7=Take Me to Texas
TTITLE8=Mom For a Wife
TTITLE9=Gypsy Rose
TTITLE10=Tennessee Border
EXTD=
EXTT0=
EXTT1=
EXTT2=
EXTT3=
EXTT4=
EXTT5=
EXTT6=
EXTT7=
EXTT8=
EXTT9=
EXTT10=
PLAYORDER=
